<?xml version="1.0" encoding="UTF-8"?>
<svg id="Layer_1" xmlns="http://www.w3.org/2000/svg" version="1.1" xmlns:xlink="http://www.w3.org/1999/xlink" viewBox="0 0 1024 1024">
  <!-- Generator: Adobe Illustrator 30.3.0, SVG Export Plug-In . SVG Version: 2.1.3 Build 182)  -->
  <defs>
    <style>
      .st0 {
        fill: url(#linear-gradient2);
      }

      .st1 {
        fill: url(#linear-gradient1);
      }

      .st2 {
        fill: #393839;
      }

      .st3 {
        fill: url(#linear-gradient4);
      }

      .st4 {
        fill: url(#linear-gradient3);
      }

      .st5 {
        fill: #933dff;
      }

      .st6 {
        fill: url(#linear-gradient);
      }
    </style>
    <linearGradient id="linear-gradient" x1="-82.8" y1="932.4" x2="-81.8" y2="931.4" gradientTransform="translate(32067.9 136269.4) scale(384 -146)" gradientUnits="userSpaceOnUse">
      <stop offset="0" stop-color="#f43f5e"/>
      <stop offset="1" stop-color="#dc2626"/>
    </linearGradient>
    <linearGradient id="linear-gradient1" x1="-82.8" y1="932.4" x2="-81.8" y2="931.4" gradientTransform="translate(32085.3 136435.5) scale(384 -146)" gradientUnits="userSpaceOnUse">
      <stop offset="0" stop-color="#10b981"/>
      <stop offset="1" stop-color="#0d9488"/>
    </linearGradient>
    <linearGradient id="linear-gradient2" x1="-82.8" y1="932.4" x2="-81.8" y2="931.4" gradientTransform="translate(32102.8 136601.6) scale(384 -146)" gradientUnits="userSpaceOnUse">
      <stop offset="0" stop-color="#3b82f6"/>
      <stop offset="1" stop-color="#4f46e5"/>
    </linearGradient>
    <linearGradient id="linear-gradient3" x1="-82.8" y1="932.4" x2="-81.8" y2="931.4" gradientTransform="translate(32120.2 136767.7) scale(384 -146)" gradientUnits="userSpaceOnUse">
      <stop offset="0" stop-color="#f59e0b"/>
      <stop offset="1" stop-color="#ea580c"/>
    </linearGradient>
    <linearGradient id="linear-gradient4" x1="-82.8" y1="932.4" x2="-81.8" y2="931.4" gradientTransform="translate(32137.7 136933.8) scale(384 -146)" gradientUnits="userSpaceOnUse">
      <stop offset="0" stop-color="#8b5cf6"/>
      <stop offset="1" stop-color="#9333ea"/>
    </linearGradient>
  </defs>
  <path class="st5" d="M721.4,502.1c12.8,15.2,39.5,30.4,64.6,42.4,1.9.9,3.8,1.8,5.7,2.7,32.6,15.8,68.9,26.1,75.9,30.1,10.2,5.8,22.1,9.7,28.8,6.4,5.8-2.8,19.7-32.5,28.3-60.5.3-.8.6-1.6.9-2.5,2.3-6.5,3.4-13.4,5-20.7,1.4-7.2,2.6-14.9,3.5-22.7,1.8-15.7,2.3-32.3,2.5-48.8.1-16.5-1-33-1.6-48.3-.7-7.7-.8-15.1-1.6-22.3-.8-7.2-1.1-13.8-2-20.3-.6-6.3-1.4-12.4-2.4-18.1-.3-4.6-2.8-12.8-4.6-18.1-.5-1.4-1-2.7-1.4-3.9-.2-.4-.3-.7-.6-1.1-2.8-10.7-11.2-21-28.3-29.3h-.2c-.4-.1-.8-.4-1.2-.6-20.4-9.9-43.8-4.1-52.1,13-.3.6-.6,1.2-.8,1.8-4.2,8.5-9.7,17-1.8,27.3,3.4,4.6,4.6,5,3.2,8s-3.7-.3-8.8,4.5c-5.4,5.2-4.3,9.8-3.6,12.4,1.4,5.1,6.6,13.7,22.6,21.5s22.9,7.3,31.6,6.3c-.5,6.1-1.4,12.5-3.1,18.6-2.2,6.6-4.1,13.3-6.9,20.1-2.6,6.8-5.3,13.7-8.3,20.6-2.8,6.8-5.8,13.6-8.8,20.2-2.6,6.3-7.3,16.2-8.7,19.2l-.8,1.7c-8.3-14-18.5-29.8-30.7-40.3-20.2-17.4-47.6-24.3-63.2-27.2-20.9-3.7-38.5,2.1-48.6,13.8-21.6,25.1-19.6,49.5,17.9,93.8Z"/>
  <path class="st5" d="M307,457.5c-10.1-11.7-27.7-17.6-48.6-13.8-15.6,2.8-43.1,9.8-63.2,27.2-12.2,10.5-22.5,26.3-30.7,40.3l-.8-1.7c-1.4-3-6.1-12.9-8.7-19.2-3-6.6-6-13.4-8.8-20.2-3-6.9-5.7-13.7-8.3-20.6-2.8-6.9-4.7-13.6-6.9-20.1-1.8-6.2-2.6-12.6-3.1-18.6,8.7,1,19.6-.5,31.6-6.3s21.1-16.3,22.6-21.5c.7-2.5,1.8-7.2-3.6-12.4-5-4.8-7.7-2.3-8.8-4.5s-.2-3.4,3.2-8c7.9-10.3,2.4-18.8-1.8-27.3-.3-.7-.5-1.2-.8-1.8-8.3-17.1-31.7-22.9-52.1-13s-.8.4-1.2.7h-.2c-17.1,8.2-25.5,18.5-28.3,29.2-.2.4-.4.7-.6,1.1-.4,1.2-.9,2.5-1.4,3.9-1.8,5.2-4.3,13.5-4.6,18.1-1,5.6-1.9,11.8-2.4,18.1-1,6.5-1.2,13.2-2,20.3-.8,7.1-.9,14.5-1.6,22.3-.6,15.3-1.8,31.8-1.6,48.3.2,16.5.7,33.1,2.5,48.8.9,7.9,2.1,15.5,3.5,22.7,1.6,7.4,2.7,14.2,5,20.7.3.8.6,1.7.9,2.5,8.6,28,22.5,57.7,28.3,60.5,6.7,3.3,18.6-.6,28.8-6.4,7-4,43.3-14.2,75.9-30.1,1.9-.9,3.8-1.7,5.7-2.7,25-12,51.8-27.3,64.6-42.4,37.5-44.3,39.5-68.8,17.9-93.8Z"/>
  <path class="st5" d="M403,1006.6c-44.1,0-80.8-33.1-85.5-77L235,143.9c-2.4-22.8,4.2-45.3,18.7-63.1,14.5-17.9,35-29,57.9-31.4l300.3-31.6c3-.3,6.1-.5,9.1-.5,44.1,0,80.8,33.1,85.5,77l82.6,785.7c2.4,22.8-4.3,45.2-18.7,63.1-14.5,17.9-35,29-57.8,31.4l-300.3,31.6c-3,.3-6.1.5-9.1.5Z"/>
  <path class="st5" d="M403,998.1c-39.7,0-72.8-29.8-77-69.4L243.5,143c-2.2-20.6,3.8-40.8,16.8-56.9,13-16.1,31.5-26.1,52.1-28.3l300.3-31.6c2.7-.3,5.5-.4,8.2-.4,39.7,0,72.8,29.8,77,69.4l82.6,785.7c4.5,42.5-26.5,80.7-69,85.2l-300.3,31.6c-2.7.3-5.5.4-8.2.4Z"/>
  <rect class="st2" x="292" y="48" width="440" height="928" rx="69" ry="69" transform="translate(-50.7 56.3) rotate(-6)"/>
  <rect class="st6" x="287.8" y="132.7" width="384" height="146" rx="28" ry="28" transform="translate(-18.9 51.3) rotate(-6)"/>
  <rect class="st1" x="305.3" y="298.8" width="384" height="146" rx="28" ry="28" transform="translate(-36.1 54) rotate(-6)"/>
  <rect class="st0" x="322.7" y="464.9" width="384" height="146" rx="28" ry="28" transform="translate(-53.4 56.7) rotate(-6)"/>
  <rect class="st4" x="340.2" y="630.9" width="384" height="146" rx="28" ry="28" transform="translate(-70.7 59.5) rotate(-6)"/>
  <rect class="st3" x="357.6" y="797" width="384" height="146" rx="28" ry="28" transform="translate(-87.9 62.2) rotate(-6)"/>
</svg>